<svg id="Layer_1" data-name="Layer 1" xmlns="http://www.w3.org/2000/svg" viewBox="0 0 512 512"><title>Telescope</title><path d="M341.22,44.73A159.9,159.9,0,0,0,185.99,242.55l44.29,75.56c0,.47-.01.93-.03,1.39h.03A159.781,159.781,0,1,0,341.22,44.73ZM221.38,196.97a.445.445,0,1,1,.44-.44A.437.437,0,0,1,221.38,196.97Z" style="fill:#e5f5fd"/><path d="M259.3,316.911,215.85,242.55A160.19,160.19,0,0,1,356.184,45.436c-4.939-.46-9.922-.706-14.982-.706A159.887,159.887,0,0,0,185.986,242.55l44.292,75.81c0,.47-.008.64-.028,1.64h.03c28.74,27,67.84,44.55,110.94,44.55,5.054,0,9.91-.371,14.845-.83-36.681-3.419-67.624-18.678-93.436-42.652a18.23,18.23,0,0,1-1.753-1.88h0A18.174,18.174,0,0,1,259.3,316.911Z" style="fill:#a6b7d0"/><path d="M182.24,284.67l-9.89-28.03-.3.11L85.81,287.18l19.23,54.5,54.2-19.13a34.259,34.259,0,0,1-.28-4.44A35.66,35.66,0,0,1,182.24,284.67Z" style="fill:#72bcef"/><polygon points="89.44 297.46 101.41 331.4 43.13 351.97 42.82 352.08 30.85 318.14 31.15 318.03 89.44 297.46" style="fill:#fadf4a"/><polygon points="28.52 311.54 11 317.72 27.64 364.86 45.15 358.68 28.52 311.54" style="fill:#50a6ea"/><path d="M463.25,247.54a28.744,28.744,0,0,0,.1,25.77,28.848,28.848,0,0,0-25.8.03,28.744,28.744,0,0,0-.1-25.77,28.848,28.848,0,0,0,25.8-.03Z" style="fill:#ccd3df"/><path d="M321.69,318.14a1.775,1.775,0,0,0,3.55,0" style="fill:#00aeef"/><path d="M364.9,77.58a28.842,28.842,0,0,0,6.82-.82,28.781,28.781,0,0,0-6.51,18.23,28.448,28.448,0,0,0,.84,6.9,28.9,28.9,0,0,0-25.16-5.74,28.77,28.77,0,0,0,5.68-25.14A28.884,28.884,0,0,0,364.9,77.58Z" style="fill:#6d7486"/><path d="M476.14,204.51a5.33,5.33,0,1,1-5.32,5.33A5.328,5.328,0,0,1,476.14,204.51Z" style="fill:#ccd3df"/><path d="M383.83,231.63a52.526,52.526,0,0,1-8.34,28.46L347.8,181.63A52.713,52.713,0,0,1,383.83,231.63Z" style="fill:#6d7486"/><polygon points="344.81 173.16 312.18 184.67 345.61 279.4 378.24 267.88 344.81 173.16" style="fill:#72bcef"/><path d="M316.37,196.54,169.44,248.39l12.8,36.28a35.693,35.693,0,0,1,46.38,22.67l112.8-39.81Z" style="fill:#fadf4a"/><path d="M250.94,196.53a.444.444,0,0,0,.44.44.445.445,0,0,0,0-.89A.446.446,0,0,0,250.94,196.53Z" style="fill:#ccd3df"/><path d="M278.328,237.648a6,6,0,0,1-2-11.66l21.111-7.45a6,6,0,1,1,4,11.316l-21.112,7.451A5.993,5.993,0,0,1,278.328,237.648Z" style="fill:#d8a43d"/><path d="M214.068,260.326a6,6,0,0,1-2-11.659l47.944-16.92a6,6,0,1,1,3.994,11.316l-47.944,16.92A5.993,5.993,0,0,1,214.068,260.326Z" style="fill:#d8a43d"/><path d="M272.4,473.269a6,6,0,0,1-5.273-3.128L203.671,353.79a6,6,0,1,1,10.535-5.745L277.658,464.4a6,6,0,0,1-5.262,8.873Z" style="fill:#4a5160"/><path d="M116.842,473.269a6,6,0,0,1-5.263-8.873L175.1,347.916a6,6,0,0,1,10.535,5.745l-63.525,116.48A6,6,0,0,1,116.842,473.269Z" style="fill:#4a5160"/><path d="M225.818,183.884a10.439,10.439,0,1,1,10.439-10.438A10.449,10.449,0,0,1,225.818,183.884Z" style="fill:#867af4"/><path d="M476.145,221.167a11.326,11.326,0,1,1,11.326-11.326A11.339,11.339,0,0,1,476.145,221.167Z" style="fill:#867af4"/><path d="M387.377,159.933A11.342,11.342,0,1,1,398.7,148.591,11.347,11.347,0,0,1,387.377,159.933Z" style="fill:#867af4"/><path d="M323.464,325.913a7.776,7.776,0,1,1,7.775-7.775A7.785,7.785,0,0,1,323.464,325.913Z" style="fill:#867af4"/><path d="M221.381,202.969a6.444,6.444,0,1,1,6.443-6.444A6.45,6.45,0,0,1,221.381,202.969Z" style="fill:#867af4"/><path d="M413.119,155.478a6.888,6.888,0,1,1,6.888-6.887A6.9,6.9,0,0,1,413.119,155.478Z" style="fill:#867af4"/><path d="M282.954,132.84a6,6,0,0,1-3.473-10.9L309.1,100.965a6,6,0,1,1,6.935,9.792l-29.617,20.978A5.973,5.973,0,0,1,282.954,132.84Z" style="fill:#a6b7d0"/><path d="M323.409,104.185A6,6,0,0,1,319.925,93.3l.237-.169a6,6,0,1,1,6.959,9.775l-.237.169A5.968,5.968,0,0,1,323.409,104.185Z" style="fill:#a6b7d0"/><path d="M292,145.633a6,6,0,0,1-3.493-10.876l.03-.021a6,6,0,1,1,3.463,10.9Z" style="fill:#a6b7d0"/><path d="M302.82,137.974a6,6,0,0,1-3.472-10.9l29.885-21.169a6,6,0,1,1,6.936,9.792L306.283,136.87A5.969,5.969,0,0,1,302.82,137.974Z" style="fill:#a6b7d0"/><path d="M377.936,311.264a6,6,0,0,1-3.473-10.9l15.628-11.07a6,6,0,1,1,6.935,9.792L381.4,310.16A5.966,5.966,0,0,1,377.936,311.264Z" style="fill:#a6b7d0"/><path d="M404.732,292.283a6,6,0,0,1-3.472-10.9l2.821-2a6,6,0,0,1,6.936,9.793l-2.822,2A5.967,5.967,0,0,1,404.732,292.283Z" style="fill:#a6b7d0"/><path d="M397.8,316.4a6,6,0,0,1-3.473-10.9l4.44-3.145a6,6,0,1,1,6.935,9.792l-4.439,3.145A5.972,5.972,0,0,1,397.8,316.4Z" style="fill:#a6b7d0"/><path d="M416.622,303.068a6,6,0,0,1-3.474-10.9l11.067-7.838a6,6,0,1,1,6.935,9.792l-11.064,7.838A5.976,5.976,0,0,1,416.622,303.068Z" style="fill:#a6b7d0"/><path d="M228.62,307.34a35.428,35.428,0,0,1,1.66,10.77c0,.47-.01.93-.03,1.39a35.657,35.657,0,0,1-71.01,3.05,34.259,34.259,0,0,1-.28-4.44,35.665,35.665,0,0,1,69.66-10.77Z" style="fill:#ed6337"/><path d="M194.62,303.08a15.035,15.035,0,1,1-15.04,15.03A15.031,15.031,0,0,1,194.62,303.08Z" style="fill:#604af3"/></svg>